<svg xmlns="http://www.w3.org/2000/svg" viewBox="0 0 2048 2048">
<g fill="#ffffff" stroke="none">
<path d="M 682 923 L 644 939 L 613 960 L 585 988 L 565 1017 L 546 1063 L 540 1093 L 539 1129 L 545 1166 L 554 1193 L 571 1225 L 592 1252 L 626 1282 L 662 1302 L 691 1312 L 724 1317 L 724 1259 L 701 1255 L 669 1241 L 631 1209 L 608 1172 L 597 1126 L 602 1077 L 615 1046 L 630 1024 L 670 991 L 694 980 L 724 974 L 724 916 Z"/>
<path d="M 938 779 L 895 830 L 869 890 L 930 890 L 966 833 L 1029 790 L 1088 777 L 1158 788 L 1212 819 L 1249 862 L 1271 915 L 1274 973 L 1339 976 L 1394 1002 L 1430 1042 L 1450 1105 L 1447 1148 L 1431 1188 L 1398 1227 L 1366 1247 L 1323 1259 L 1058 1259 L 991 1317 L 1342 1315 L 1402 1294 L 1457 1250 L 1491 1198 L 1507 1142 L 1507 1091 L 1492 1037 L 1466 993 L 1428 955 L 1380 928 L 1330 914 L 1305 843 L 1253 778 L 1175 732 L 1079 719 L 1002 738 Z"/>
<path d="M 760 719 L 761 1317 L 916 1310 L 992 1273 L 1049 1209 L 1073 1153 L 1101 1009 L 1219 1008 L 1231 950 L 920 950 L 908 1008 L 1042 1009 L 1016 1141 L 991 1192 L 948 1233 L 894 1256 L 820 1259 L 819 719 Z"/>
</g></svg>
